<svg width="24" height="24" viewBox="0 0 24 24" fill="none" xmlns="http://www.w3.org/2000/svg">
<path fill-rule="evenodd" clip-rule="evenodd" d="M11.9934 10.8349L11.6393 10.8364C10.2348 10.8486 8.9817 10.9333 8.1876 11.0793C8.1733 11.0793 7.3857 11.2385 7.1236 11.34C6.7446 11.4993 6.423 11.7873 6.2192 12.1483C6.0738 12.4374 6 12.7407 6 13.0582C6.0116 13.3077 6.1371 13.7192 6.2424 14.013L6.336 14.257C6.9782 15.8738 9.0766 18.9643 10.3598 20.1479L10.4495 20.2351L10.8698 20.6246C11.1915 20.8701 11.5847 20.9999 12.0077 20.9999C12.3866 20.9999 12.7656 20.8842 13.0718 20.653C13.171 20.5837 13.2983 20.4722 13.4058 20.3729L13.8026 19.9939C15.1243 18.6894 16.9782 15.865 17.5924 14.401C17.6057 14.401 17.9857 13.4912 18 13.0582V13.0003C18 12.336 17.6211 11.7153 17.0086 11.3978C16.8412 11.3111 16.5132 11.2279 16.2252 11.1646L15.6813 11.0509C14.8067 10.9211 13.465 10.8349 11.9934 10.8349ZM13.5183 4.5031C13.5183 3.673 12.8387 2.9999 12.0004 2.9999C11.1622 2.9999 10.4825 3.673 10.4825 4.5031L10.8097 8.2024C10.8097 8.8536 11.3417 9.3816 12.0004 9.3816C12.6581 9.3816 13.1912 8.8536 13.1912 8.2024L13.5183 4.5031Z" fill="#F25267"/>
</svg>
