<svg width="24" height="24" viewBox="0 0 24 24" fill="none" xmlns="http://www.w3.org/2000/svg">
<path fill-rule="evenodd" clip-rule="evenodd" d="M13.5175 19.4966L13.1903 15.7974C13.1903 15.1461 12.6583 14.6181 11.9996 14.6181C11.3419 14.6181 10.8088 15.1461 10.8088 15.7974L10.4817 19.4966C10.4817 20.3268 11.1613 20.9999 11.9996 20.9999C12.8378 20.9999 13.5175 20.3268 13.5175 19.4966ZM13.2499 3.4858C13.1936 3.4346 13.1505 3.3953 13.1302 3.3751C12.8085 3.1297 12.4153 2.9999 11.9923 2.9999C11.6134 2.9999 11.2344 3.1155 10.9282 3.3468C10.7156 3.4951 10.3742 3.8377 10.3742 3.8377C9.0468 5.0508 7.0498 8.0682 6.4076 9.5987C6.3943 9.5987 6.0143 10.5085 6 10.9416V10.9994C6 11.6638 6.3789 12.2845 6.9914 12.6019C7.2446 12.7331 7.8651 12.8562 8.1592 12.9145C8.254 12.9333 8.3149 12.9454 8.3187 12.9488C9.1933 13.0787 10.535 13.1648 12.0066 13.1648C13.5531 13.1648 14.9521 13.0787 15.8124 12.9205C15.8267 12.9205 16.6143 12.7612 16.8765 12.6598C17.2554 12.5005 17.577 12.2125 17.7808 11.8514C17.9262 11.5623 18 11.2591 18 10.9416C17.9846 10.6089 17.7665 9.9882 17.664 9.7427C17.0219 8.126 14.9234 5.0355 13.6402 3.8519C13.5066 3.7196 13.3552 3.5817 13.2499 3.4858Z" fill="#2ED573"/>
</svg>
