<svg width="24" height="24" viewBox="0 0 24 24" fill="none" xmlns="http://www.w3.org/2000/svg">
<path fill-rule="evenodd" clip-rule="evenodd" d="M13.6829 3.9215C12.572 3.69283 11.428 3.69283 10.3171 3.9215C6.53632 4.69977 3.62913 7.75101 2.91777 11.5759C3.38704 11.308 3.92932 11.1547 4.50968 11.1547C4.89468 11.1547 5.27773 11.2091 5.6479 11.3163L5.9388 11.4006C5.93877 11.4006 5.93884 11.4006 5.9388 11.4006C7.58884 11.8784 8.82386 13.2614 9.14723 14.9635C9.33405 15.9469 9.33405 16.9578 9.14723 17.9412C8.82385 19.6433 7.5889 21.0262 5.93891 21.5041C5.93889 21.5041 5.93893 21.5041 5.93891 21.5041L5.64795 21.5884C5.27778 21.6956 4.89468 21.75 4.50968 21.75C2.69326 21.75 1.25 20.2482 1.25001 18.432V17.0208L1.25 13.0165L1.27605 12.6278C1.61156 7.62247 5.18028 3.44746 10.0147 2.4523C11.325 2.18257 12.675 2.18257 13.9853 2.4523C18.8197 3.44745 22.3885 7.62241 22.7239 12.6277C22.7239 12.6277 22.7239 12.6277 22.7239 12.6277L22.75 13.0165V18.432C22.75 20.2482 21.3068 21.75 19.4903 21.75C19.1053 21.75 18.7223 21.6956 18.3521 21.5884L18.0611 21.5041C18.0611 21.5041 18.0612 21.5041 18.0611 21.5041C16.4112 21.0262 15.1761 19.6433 14.8528 17.9412C14.6659 16.9578 14.6659 15.9469 14.8528 14.9635C15.1761 13.2614 16.4111 11.8784 18.0612 11.4006L18.3519 11.3163C18.7221 11.2091 19.1053 11.1547 19.4903 11.1547C20.0707 11.1547 20.6129 11.308 21.0822 11.5759C20.3709 7.75101 17.4637 4.69977 13.6829 3.9215ZM21.25 14.4727C21.25 13.4523 20.446 12.6547 19.4903 12.6547C19.2467 12.6547 19.0041 12.6891 18.7693 12.7571L18.4786 12.8414C17.3852 13.158 16.5471 14.0818 16.3264 15.2435C16.1747 16.0418 16.1747 16.8628 16.3264 17.6612C16.5471 18.8228 17.385 19.7466 18.4785 20.0633L18.7693 20.1476C18.7693 20.1476 18.7694 20.1476 18.7693 20.1476C19.0041 20.2156 19.2467 20.25 19.4903 20.25C20.446 20.25 21.25 19.4524 21.25 18.432V14.4727ZM4.50968 12.6547C3.55398 12.6547 2.75 13.4523 2.75001 14.4727V18.432C2.75 19.4524 3.55398 20.25 4.50968 20.25C4.75331 20.25 4.99585 20.2156 5.23053 20.1476C5.23051 20.1476 5.23054 20.1476 5.23053 20.1476L5.52149 20.0633C6.61491 19.7466 7.4529 18.8229 7.67359 17.6612C7.82527 16.8628 7.82527 16.0419 7.67359 15.2435C7.45289 14.0818 6.61494 13.158 5.5216 12.8414L5.23058 12.7571C5.23056 12.7571 5.23059 12.7571 5.23058 12.7571C4.9959 12.6891 4.75331 12.6547 4.50968 12.6547Z" fill="#93949D"/>
</svg>
