<svg width="24" height="24" viewBox="0 0 24 24" fill="none" xmlns="http://www.w3.org/2000/svg">
<path d="M13.9329 3.6715C12.822 3.44283 11.678 3.44283 10.5671 3.6715C6.78632 4.44977 3.87913 7.50101 3.16777 11.3259C3.63704 11.058 4.17932 10.9047 4.75968 10.9047C5.14468 10.9047 5.52773 10.9591 5.8979 11.0663L6.1888 11.1506C7.83884 11.6284 9.07386 13.0114 9.39723 14.7135C9.58405 15.6969 9.58405 16.7078 9.39723 17.6912C9.07385 19.3933 7.8389 20.7762 6.18891 21.2541L5.89795 21.3384C5.52778 21.4456 5.14468 21.5 4.75968 21.5C2.94326 21.5 1.5 19.9982 1.50001 18.182L1.5 12.7665L1.52605 12.3778C1.86156 7.37247 5.43028 3.19746 10.2647 2.2023C11.575 1.93257 12.925 1.93257 14.2353 2.2023C19.0697 3.19745 22.6385 7.37241 22.9739 12.3777L23 12.7665V18.182C23 19.9982 21.5568 21.5 19.7403 21.5C19.3553 21.5 18.9723 21.4456 18.6021 21.3384L18.3111 21.2541C16.6612 20.7762 15.4261 19.3933 15.1028 17.6912C14.9159 16.7078 14.9159 15.6969 15.1028 14.7135C15.4261 13.0114 16.6611 11.6284 18.3112 11.1506L18.6019 11.0663C18.9721 10.9591 19.3553 10.9047 19.7403 10.9047C20.3207 10.9047 20.8629 11.058 21.3322 11.3259C20.6209 7.50101 17.7137 4.44977 13.9329 3.6715Z" fill="#10A5E7"/>
</svg>
