<svg width="24" height="24" viewBox="0 0 24 24" fill="none" xmlns="http://www.w3.org/2000/svg">
<path d="M3.64911 12.8183C2.95551 12.5279 2.93751 11.5115 3.62031 11.1959C3.77391 11.1239 4.08351 11.1215 11.9999 11.1215C19.9163 11.1215 20.2259 11.1239 20.3795 11.1959C20.5329 11.2657 20.6623 11.3792 20.7513 11.5222C20.8403 11.6653 20.8851 11.8315 20.8799 11.9999C20.8851 12.1683 20.8403 12.3345 20.7513 12.4777C20.6623 12.6207 20.5329 12.7342 20.3795 12.8039C20.2259 12.8759 19.9163 12.8783 12.0083 12.8795C4.67391 12.8795 3.78111 12.8735 3.64911 12.8183Z" fill="#93A8C0"/>
<path d="M11.6482 19.818C10.9558 19.5288 10.9378 18.5112 11.6194 18.1956C11.7718 18.1248 11.977 18.1212 15.9994 18.1212C20.023 18.1212 20.227 18.1248 20.3794 18.1956C20.695 18.342 20.8798 18.6396 20.8798 18.9996C20.885 19.1679 20.8402 19.3341 20.7512 19.4773C20.6622 19.6203 20.5328 19.7338 20.3794 19.8036C20.227 19.8744 20.0218 19.878 16.009 19.8792C12.2902 19.8804 11.7802 19.8732 11.6482 19.818Z" fill="#93A8C0"/>
<path fill-rule="evenodd" clip-rule="evenodd" d="M7.6199 4.19637C6.9383 4.51197 6.9563 5.52837 7.6487 5.81757C7.7807 5.87277 8.4827 5.87997 14.0003 5.87997C20.7983 5.87997 20.3507 5.89557 20.6147 5.64837C20.9663 5.31837 20.9663 4.68117 20.6147 4.35237C20.3507 4.10397 20.7995 4.11957 13.9907 4.12077C8.0303 4.12197 7.7735 4.12437 7.6199 4.19637Z" fill="#93A8C0"/>
</svg>
