<svg width="56" height="56" viewBox="0 0 56 56" fill="none" xmlns="http://www.w3.org/2000/svg">
<rect width="56" height="56" rx="28" fill="#E0F2FE"/>
<path fill-rule="evenodd" clip-rule="evenodd" d="M20.5689 23.9452C20.5689 20.7342 23.5566 17.2501 28 17.2501C32.4434 17.2501 35.4312 20.7342 35.4312 23.9452C35.4312 24.769 35.536 25.3458 35.6792 25.7894C35.8227 26.2344 36.014 26.5763 36.2344 26.9452C36.257 26.983 36.2801 27.0214 36.3037 27.0606C36.5048 27.3947 36.7382 27.7826 36.9164 28.2489C37.1219 28.7865 37.25 29.4103 37.25 30.2206C37.25 30.2422 37.2491 30.2639 37.2472 30.2854C37.1745 31.1232 36.9256 31.8585 36.452 32.4711C35.9804 33.081 35.3291 33.5139 34.5437 33.8214C33.0092 34.4224 30.817 34.5978 28 34.5978C25.1843 34.5978 22.9922 34.4253 21.4576 33.8258C20.672 33.5189 20.0203 33.0863 19.5484 32.4755C19.0746 31.8621 18.8257 31.1255 18.7528 30.2854C18.7509 30.2639 18.75 30.2422 18.75 30.2206C18.75 29.4103 18.8781 28.7865 19.0836 28.2488C19.2618 27.7826 19.4952 27.3947 19.6963 27.0606C19.7199 27.0214 19.743 26.983 19.7656 26.9452C19.986 26.5763 20.1773 26.2344 20.3209 25.7894C20.464 25.3458 20.5689 24.769 20.5689 23.9452ZM28 18.7501C24.3529 18.7501 22.0689 21.5943 22.0689 23.9452C22.0689 24.9016 21.9463 25.6365 21.7484 26.25C21.551 26.862 21.2876 27.3224 21.0533 27.7145C21.0301 27.7533 21.0074 27.7912 20.9852 27.8282C20.7778 28.1741 20.613 28.4487 20.4848 28.7843C20.3516 29.1329 20.2534 29.5649 20.2501 30.1877C20.3068 30.7885 20.4774 31.2244 20.7355 31.5585C21.0001 31.901 21.4004 32.1931 22.0034 32.4286C23.2461 32.9141 25.1775 33.0978 28 33.0978C30.8222 33.0978 32.7541 32.9114 33.9967 32.4247C34.6 32.1885 35.0006 31.896 35.2653 31.5536C35.5233 31.2198 35.6935 30.7853 35.7499 30.1877C35.7466 29.5649 35.6484 29.1329 35.5152 28.7843C35.387 28.4487 35.2223 28.1741 35.0148 27.8281C34.9926 27.7911 34.9699 27.7533 34.9468 27.7145C34.7125 27.3224 34.4491 26.862 34.2516 26.25C34.0537 25.6365 33.9312 24.9016 33.9312 23.9452C33.9312 21.5943 31.647 18.7501 28 18.7501Z" fill="#10A5E7"/>
<path fill-rule="evenodd" clip-rule="evenodd" d="M25.0183 36.2994C25.3264 36.0226 25.8006 36.0479 26.0774 36.356C27.1537 37.5539 28.7624 37.5426 29.8316 36.3554C30.1088 36.0476 30.583 36.0228 30.8908 36.3C31.1986 36.5772 31.2234 37.0514 30.9462 37.3592C29.287 39.2014 26.6397 39.2262 24.9617 37.3586C24.6848 37.0505 24.7102 36.5763 25.0183 36.2994Z" fill="#10A5E7"/>
</svg>
