<svg width="20" height="20" viewBox="0 0 20 20" fill="none" xmlns="http://www.w3.org/2000/svg">
<path d="M14.0715 5.13263C14.25 5.12057 14.426 5.1792 14.5608 5.29669C14.6956 5.41432 14.778 5.5811 14.7903 5.75958C14.8024 5.93815 14.7438 6.11492 14.6262 6.24982L9.89087 11.6766C9.83283 11.7434 9.76207 11.7982 9.68286 11.8377C9.60343 11.8773 9.51651 11.901 9.42798 11.907C9.33942 11.9131 9.25035 11.9013 9.16626 11.8729C9.12413 11.8586 9.08349 11.8403 9.04517 11.8182L8.93774 11.741C8.87097 11.6829 8.81605 11.6123 8.77661 11.533C8.73708 11.4536 8.71428 11.3667 8.70825 11.2781C8.70226 11.1897 8.71307 11.1004 8.74146 11.0164C8.76986 10.9325 8.81488 10.8546 8.87329 10.7879L13.6086 5.36212C13.7264 5.22723 13.8929 5.14478 14.0715 5.13263Z" fill="#10A5E7" stroke="#10A5E7" stroke-width="0.25"/>
<path d="M17.729 4.64587C17.8187 4.63866 17.9092 4.64993 17.9947 4.6781C18.0801 4.70628 18.1593 4.75082 18.2271 4.80994C18.2949 4.86911 18.3496 4.94195 18.3892 5.02283C18.4287 5.10367 18.4525 5.19178 18.4576 5.28162C18.4625 5.37136 18.4497 5.4616 18.4195 5.54626C18.3895 5.63012 18.3416 5.70595 18.2818 5.77185L18.2827 5.77283L10.1333 15.1127C10.0707 15.1846 9.99342 15.2427 9.90677 15.2826C9.81992 15.3225 9.72501 15.3444 9.62943 15.3451H9.62454C9.43316 15.3451 9.25057 15.2629 9.12259 15.1215L7.98489 13.8578L6.89212 15.1127C6.8294 15.1846 6.75229 15.2427 6.66556 15.2826C6.60054 15.3125 6.53128 15.3321 6.46048 15.3402L6.38821 15.3441H6.38333C6.19197 15.3441 6.01033 15.2619 5.88235 15.1205H5.88138L1.72513 10.5062C1.60528 10.3731 1.54291 10.1978 1.55228 10.0189C1.56173 9.84022 1.64197 9.67288 1.77493 9.5531C1.90805 9.43323 2.08335 9.37088 2.26224 9.38025C2.44106 9.38966 2.60921 9.46983 2.72903 9.60291L6.37454 13.6508L7.07376 12.847L4.96536 10.5062C4.84554 10.3732 4.7832 10.1977 4.79251 10.0189C4.80188 9.84003 4.88205 9.67199 5.01517 9.55212C5.14828 9.43227 5.3236 9.3699 5.50247 9.37927C5.68135 9.38865 5.84941 9.46882 5.96927 9.60193L9.61673 13.6508L17.2661 4.88513C17.3232 4.81711 17.3934 4.76105 17.4722 4.72009C17.552 4.67864 17.6394 4.6531 17.729 4.64587Z" fill="#10A5E7" stroke="#10A5E7" stroke-width="0.25"/>
</svg>
