<svg width="21" height="21" viewBox="0 0 21 21" fill="none" xmlns="http://www.w3.org/2000/svg">
<g clip-path="url(#clip0_1_560)">
<path d="M1.25043 7.95109L18.1936 0.173457C18.5402 0.0142823 18.9272 -0.0349992 19.3026 0.0322326C19.678 0.0994644 20.0238 0.279989 20.2936 0.549549C20.5847 0.838052 20.7964 1.19685 20.9081 1.59119C21.0198 1.98553 21.0278 2.40204 20.9313 2.80037L19.4278 9.34473H12.0435C11.8754 9.36256 11.7199 9.44195 11.6068 9.56761C11.4938 9.69326 11.4313 9.8563 11.4313 10.0253C11.4313 10.1943 11.4938 10.3574 11.6068 10.483C11.7199 10.6087 11.8754 10.6881 12.0435 10.7059H19.4278L20.936 17.2484C21.0325 17.6465 21.0245 18.0629 20.9128 18.4571C20.8011 18.8512 20.5894 19.2099 20.2984 19.4982C20.0286 19.7678 19.6828 19.9483 19.3074 20.0155C18.932 20.0828 18.545 20.0335 18.1984 19.8743L1.25043 12.0948C0.873059 11.8961 0.557123 11.5981 0.336728 11.2329C0.116332 10.8678 -0.000152588 10.4494 -0.000152588 10.0229C-0.000152588 9.59645 0.116332 9.17806 0.336728 8.81293C0.557123 8.4478 0.873059 8.1498 1.25043 7.95109Z" fill="#93A8C0"/>
</g>
<defs>
<clipPath id="clip0_1_560">
<rect width="21" height="20.0455" fill="white"/>
</clipPath>
</defs>
</svg>
