<svg width="24" height="24" viewBox="0 0 24 24" fill="none" xmlns="http://www.w3.org/2000/svg">
<path fill-rule="evenodd" clip-rule="evenodd" d="M6.34309 6.34313C6.73362 5.9526 7.48061 6.06643 8.01155 6.59737L17.4026 15.9884C17.9335 16.5193 18.0473 17.2663 17.6568 17.6568C17.2663 18.0474 16.5193 17.9335 15.9883 17.4026L6.59734 8.01159C6.0664 7.48065 5.95257 6.73365 6.34309 6.34313Z" fill="#3F3F44"/>
<path fill-rule="evenodd" clip-rule="evenodd" d="M6.34309 17.6569C5.95257 17.2664 6.06606 16.5197 6.59658 15.9892L15.9891 6.59666C16.5196 6.06613 17.2663 5.95264 17.6568 6.34317C18.0473 6.73369 17.9338 7.48035 17.4033 8.01087L8.0108 17.4034C7.48027 17.9339 6.73362 18.0474 6.34309 17.6569Z" fill="#3F3F44"/>
</svg>
